<svg width="83" height="34" viewBox="0 0 83 34" fill="none" xmlns="http://www.w3.org/2000/svg">
<path d="M11.2563 30.9049H12.2246C12.416 30.9049 12.5703 30.9591 12.6875 31.0675C12.8047 31.1749 12.8633 31.3263 12.8633 31.5216C12.8633 31.6896 12.811 31.8361 12.7065 31.9611C12.6021 32.0851 12.4414 32.1471 12.2246 32.1471H11.5479V33.0568H11.2563V30.9049ZM12.5688 31.5231C12.5688 31.3649 12.5103 31.2574 12.3931 31.2008C12.3286 31.1705 12.2402 31.1554 12.1279 31.1554H11.5479V31.901H12.1279C12.2588 31.901 12.3647 31.8732 12.4458 31.8175C12.5278 31.7618 12.5688 31.6637 12.5688 31.5231ZM13.2368 30.9049H13.5312V31.7941H14.6504V30.9049H14.9448V33.0568H14.6504V32.0504H13.5312V33.0568H13.2368V30.9049ZM15.2305 30.9049H15.5703L16.1885 31.9391L16.8066 30.9049H17.1479L16.335 32.1896V33.0568H16.0435V32.1896L15.2305 30.9049ZM17.5889 32.3624C17.5957 32.4845 17.6245 32.5836 17.6753 32.6598C17.772 32.8024 17.9424 32.8737 18.1865 32.8737C18.2959 32.8737 18.3955 32.858 18.4854 32.8268C18.6592 32.7662 18.7461 32.6578 18.7461 32.5016C18.7461 32.3844 18.7095 32.3009 18.6362 32.2511C18.562 32.2023 18.4458 32.1598 18.2876 32.1237L17.9961 32.0577C17.8057 32.0148 17.6709 31.9674 17.5918 31.9156C17.4551 31.8258 17.3867 31.6915 17.3867 31.5128C17.3867 31.3195 17.4536 31.1608 17.5874 31.0367C17.7212 30.9127 17.9106 30.8507 18.1558 30.8507C18.3813 30.8507 18.5728 30.9054 18.73 31.0148C18.8882 31.1232 18.9673 31.297 18.9673 31.5363H18.6934C18.6787 31.421 18.6475 31.3326 18.5996 31.2711C18.5107 31.1588 18.3599 31.1027 18.147 31.1027C17.9751 31.1027 17.8516 31.1388 17.7764 31.2111C17.7012 31.2833 17.6636 31.3673 17.6636 31.463C17.6636 31.5685 17.7075 31.6456 17.7954 31.6945C17.853 31.7257 17.9834 31.7648 18.1865 31.8116L18.4883 31.8805C18.6338 31.9137 18.7461 31.9591 18.8252 32.0167C18.9619 32.1173 19.0303 32.2633 19.0303 32.4547C19.0303 32.693 18.9434 32.8634 18.7695 32.9659C18.5967 33.0685 18.3955 33.1198 18.166 33.1198C17.8984 33.1198 17.689 33.0514 17.5376 32.9147C17.3862 32.7789 17.312 32.5948 17.3149 32.3624H17.5889ZM19.4653 30.9049H19.7598V33.0568H19.4653V30.9049ZM21.1631 30.8463C21.543 30.8463 21.8242 30.9684 22.0068 31.2125C22.1494 31.403 22.2207 31.6466 22.2207 31.9435C22.2207 32.2648 22.1392 32.5319 21.9761 32.7448C21.7847 32.9948 21.5117 33.1198 21.1572 33.1198C20.8262 33.1198 20.5659 33.0104 20.3765 32.7916C20.2075 32.5807 20.123 32.3141 20.123 31.9918C20.123 31.7008 20.1953 31.4518 20.3398 31.2448C20.5254 30.9791 20.7998 30.8463 21.1631 30.8463ZM21.1924 32.859C21.4492 32.859 21.6348 32.7672 21.749 32.5836C21.8643 32.399 21.9219 32.1871 21.9219 31.9479C21.9219 31.6949 21.8555 31.4913 21.7227 31.337C21.5908 31.1827 21.4102 31.1056 21.1807 31.1056C20.958 31.1056 20.7764 31.1823 20.6357 31.3356C20.4951 31.4879 20.4248 31.713 20.4248 32.0109C20.4248 32.2491 20.4849 32.4503 20.605 32.6144C20.7261 32.7775 20.9219 32.859 21.1924 32.859ZM24.1353 30.9049V31.1613H23.4102V33.0568H23.1143V31.1613H22.3892V30.9049H24.1353ZM24.4106 30.9049H24.7051V31.7941H25.8242V30.9049H26.1187V33.0568H25.8242V32.0504H24.7051V33.0568H24.4106V30.9049ZM26.5991 30.9049H28.168V31.1686H26.8833V31.8219H28.0713V32.0709H26.8833V32.8004H28.1899V33.0568H26.5991V30.9049ZM29.5728 31.8907C29.7095 31.8907 29.8174 31.8634 29.8965 31.8087C29.9766 31.754 30.0166 31.6554 30.0166 31.5128C30.0166 31.3595 29.9609 31.255 29.8496 31.1993C29.79 31.17 29.7104 31.1554 29.6108 31.1554H28.8989V31.8907H29.5728ZM28.6074 30.9049H29.6035C29.7676 30.9049 29.9028 30.9288 30.0093 30.9767C30.2114 31.0685 30.3125 31.2379 30.3125 31.485C30.3125 31.6139 30.2856 31.7194 30.2319 31.8014C30.1792 31.8834 30.105 31.9493 30.0093 31.9991C30.0933 32.0333 30.1562 32.0782 30.1982 32.1339C30.2412 32.1896 30.2651 32.2799 30.27 32.4049L30.2803 32.6935C30.2832 32.7755 30.29 32.8365 30.3008 32.8766C30.3184 32.9449 30.3496 32.9889 30.3945 33.0084V33.0568H30.0371C30.0273 33.0382 30.0195 33.0143 30.0137 32.985C30.0078 32.9557 30.0029 32.899 29.999 32.8151L29.9814 32.4562C29.9746 32.3156 29.9224 32.2213 29.8247 32.1735C29.769 32.1471 29.6816 32.1339 29.5625 32.1339H28.8989V33.0568H28.6074V30.9049ZM31.8447 32.1749L31.5181 31.2242L31.1709 32.1749H31.8447ZM31.3657 30.9049H31.6953L32.4761 33.0568H32.1567L31.9385 32.4122H31.0874L30.8545 33.0568H30.5557L31.3657 30.9049ZM32.769 30.9049H33.7373C33.9287 30.9049 34.083 30.9591 34.2002 31.0675C34.3174 31.1749 34.376 31.3263 34.376 31.5216C34.376 31.6896 34.3237 31.8361 34.2192 31.9611C34.1147 32.0851 33.9541 32.1471 33.7373 32.1471H33.0605V33.0568H32.769V30.9049ZM34.0815 31.5231C34.0815 31.3649 34.0229 31.2574 33.9058 31.2008C33.8413 31.1705 33.7529 31.1554 33.6406 31.1554H33.0605V31.901H33.6406C33.7715 31.901 33.8774 31.8732 33.9585 31.8175C34.0405 31.7618 34.0815 31.6637 34.0815 31.5231ZM34.5752 30.9049H34.915L35.5332 31.9391L36.1514 30.9049H36.4927L35.6797 32.1896V33.0568H35.3882V32.1896L34.5752 30.9049ZM38.4658 32.1749L38.1392 31.2242L37.792 32.1749H38.4658ZM37.9868 30.9049H38.3164L39.0972 33.0568H38.7778L38.5596 32.4122H37.7085L37.4756 33.0568H37.1768L37.9868 30.9049ZM40.7056 30.9049V31.1613H39.9805V33.0568H39.6846V31.1613H38.9595V30.9049H40.7056ZM41.5361 30.9049H41.876L42.4941 31.9391L43.1123 30.9049H43.4536L42.6406 32.1896V33.0568H42.3491V32.1896L41.5361 30.9049ZM44.6328 30.8463C45.0127 30.8463 45.2939 30.9684 45.4766 31.2125C45.6191 31.403 45.6904 31.6466 45.6904 31.9435C45.6904 32.2648 45.6089 32.5319 45.4458 32.7448C45.2544 32.9948 44.9814 33.1198 44.627 33.1198C44.2959 33.1198 44.0356 33.0104 43.8462 32.7916C43.6772 32.5807 43.5928 32.3141 43.5928 31.9918C43.5928 31.7008 43.665 31.4518 43.8096 31.2448C43.9951 30.9791 44.2695 30.8463 44.6328 30.8463ZM44.6621 32.859C44.9189 32.859 45.1045 32.7672 45.2188 32.5836C45.334 32.399 45.3916 32.1871 45.3916 31.9479C45.3916 31.6949 45.3252 31.4913 45.1924 31.337C45.0605 31.1827 44.8799 31.1056 44.6504 31.1056C44.4277 31.1056 44.2461 31.1823 44.1055 31.3356C43.9648 31.4879 43.8945 31.713 43.8945 32.0109C43.8945 32.2491 43.9546 32.4503 44.0747 32.6144C44.1958 32.7775 44.3916 32.859 44.6621 32.859ZM46.3555 30.9049V32.235C46.3555 32.3912 46.3848 32.5211 46.4434 32.6246C46.5303 32.7809 46.6768 32.859 46.8828 32.859C47.1299 32.859 47.2979 32.7745 47.3867 32.6056C47.4346 32.5138 47.4585 32.3903 47.4585 32.235V30.9049H47.7544V32.1134C47.7544 32.3781 47.7188 32.5817 47.6475 32.7242C47.5166 32.984 47.2695 33.1139 46.9062 33.1139C46.543 33.1139 46.2964 32.984 46.1665 32.7242C46.0952 32.5817 46.0596 32.3781 46.0596 32.1134V30.9049H46.3555ZM49.2075 31.8907C49.3442 31.8907 49.4521 31.8634 49.5312 31.8087C49.6113 31.754 49.6514 31.6554 49.6514 31.5128C49.6514 31.3595 49.5957 31.255 49.4844 31.1993C49.4248 31.17 49.3452 31.1554 49.2456 31.1554H48.5337V31.8907H49.2075ZM48.2422 30.9049H49.2383C49.4023 30.9049 49.5376 30.9288 49.644 30.9767C49.8462 31.0685 49.9473 31.2379 49.9473 31.485C49.9473 31.6139 49.9204 31.7194 49.8667 31.8014C49.814 31.8834 49.7397 31.9493 49.644 31.9991C49.728 32.0333 49.791 32.0782 49.833 32.1339C49.876 32.1896 49.8999 32.2799 49.9048 32.4049L49.915 32.6935C49.918 32.7755 49.9248 32.8365 49.9355 32.8766C49.9531 32.9449 49.9844 32.9889 50.0293 33.0084V33.0568H49.6719C49.6621 33.0382 49.6543 33.0143 49.6484 32.985C49.6426 32.9557 49.6377 32.899 49.6338 32.8151L49.6162 32.4562C49.6094 32.3156 49.5571 32.2213 49.4595 32.1735C49.4038 32.1471 49.3164 32.1339 49.1973 32.1339H48.5337V33.0568H48.2422V30.9049ZM52.1167 30.8463C52.3892 30.8463 52.6006 30.9181 52.751 31.0616C52.9014 31.2052 52.9849 31.3683 53.0015 31.5509H52.7173C52.6851 31.4122 52.6206 31.3024 52.5239 31.2213C52.4282 31.1403 52.2935 31.0997 52.1196 31.0997C51.9077 31.0997 51.7363 31.1744 51.6055 31.3239C51.4756 31.4723 51.4106 31.7003 51.4106 32.0079C51.4106 32.2599 51.4692 32.4645 51.5864 32.6217C51.7046 32.778 51.8804 32.8561 52.1138 32.8561C52.3286 32.8561 52.4922 32.7736 52.6045 32.6085C52.6641 32.5216 52.7085 32.4073 52.7378 32.2657H53.022C52.9966 32.4923 52.9126 32.6823 52.77 32.8356C52.5991 33.0201 52.3687 33.1124 52.0786 33.1124C51.8286 33.1124 51.6187 33.0367 51.4487 32.8854C51.2251 32.6852 51.1133 32.3761 51.1133 31.9581C51.1133 31.6407 51.1973 31.3805 51.3652 31.1774C51.5469 30.9567 51.7974 30.8463 52.1167 30.8463ZM54.3066 30.8463C54.6865 30.8463 54.9678 30.9684 55.1504 31.2125C55.293 31.403 55.3643 31.6466 55.3643 31.9435C55.3643 32.2648 55.2827 32.5319 55.1196 32.7448C54.9282 32.9948 54.6553 33.1198 54.3008 33.1198C53.9697 33.1198 53.7095 33.0104 53.52 32.7916C53.3511 32.5807 53.2666 32.3141 53.2666 31.9918C53.2666 31.7008 53.3389 31.4518 53.4834 31.2448C53.6689 30.9791 53.9434 30.8463 54.3066 30.8463ZM54.3359 32.859C54.5928 32.859 54.7783 32.7672 54.8926 32.5836C55.0078 32.399 55.0654 32.1871 55.0654 31.9479C55.0654 31.6949 54.999 31.4913 54.8662 31.337C54.7344 31.1827 54.5537 31.1056 54.3242 31.1056C54.1016 31.1056 53.9199 31.1823 53.7793 31.3356C53.6387 31.4879 53.5684 31.713 53.5684 32.0109C53.5684 32.2491 53.6284 32.4503 53.7485 32.6144C53.8696 32.7775 54.0654 32.859 54.3359 32.859ZM55.7129 30.9049H56.0571L57.144 32.6481V30.9049H57.4209V33.0568H57.0942L55.9912 31.3151V33.0568H55.7129V30.9049ZM58.0508 30.9049L58.6689 32.7374L59.2798 30.9049H59.6064L58.8213 33.0568H58.5122L57.7285 30.9049H58.0508ZM59.9097 30.9049H61.4785V31.1686H60.1938V31.8219H61.3818V32.0709H60.1938V32.8004H61.5005V33.0568H59.9097V30.9049ZM61.8828 30.9049H62.2271L63.314 32.6481V30.9049H63.5908V33.0568H63.2642L62.1611 31.3151V33.0568H61.8828V30.9049ZM64.1167 30.9049H64.4111V33.0568H64.1167V30.9049ZM64.9136 30.9049H66.4824V31.1686H65.1978V31.8219H66.3857V32.0709H65.1978V32.8004H66.5044V33.0568H64.9136V30.9049ZM66.8867 30.9049H67.231L68.3179 32.6481V30.9049H68.5947V33.0568H68.2681L67.165 31.3151V33.0568H66.8867V30.9049ZM69.9614 30.8463C70.2339 30.8463 70.4453 30.9181 70.5957 31.0616C70.7461 31.2052 70.8296 31.3683 70.8462 31.5509H70.562C70.5298 31.4122 70.4653 31.3024 70.3687 31.2213C70.2729 31.1403 70.1382 31.0997 69.9644 31.0997C69.7524 31.0997 69.5811 31.1744 69.4502 31.3239C69.3203 31.4723 69.2554 31.7003 69.2554 32.0079C69.2554 32.2599 69.314 32.4645 69.4312 32.6217C69.5493 32.778 69.7251 32.8561 69.9585 32.8561C70.1733 32.8561 70.3369 32.7736 70.4492 32.6085C70.5088 32.5216 70.5532 32.4073 70.5825 32.2657H70.8667C70.8413 32.4923 70.7573 32.6823 70.6147 32.8356C70.4438 33.0201 70.2134 33.1124 69.9233 33.1124C69.6733 33.1124 69.4634 33.0367 69.2935 32.8854C69.0698 32.6852 68.958 32.3761 68.958 31.9581C68.958 31.6407 69.042 31.3805 69.21 31.1774C69.3916 30.9567 69.6421 30.8463 69.9614 30.8463ZM71.2505 30.9049H72.8193V31.1686H71.5347V31.8219H72.7227V32.0709H71.5347V32.8004H72.8413V33.0568H71.2505V30.9049Z" fill="#151922"/>
<path d="M49.0073 9.77396C52.0621 10.0651 54.3406 12.7528 54.5699 15.4203C54.8676 18.8847 52.7537 21.6282 49.966 22.3114C47.9792 22.7982 46.1907 22.4197 44.6606 21.0128C44.589 20.9471 44.5146 20.8844 44.3485 20.7388C44.4532 22.2976 44.263 23.7507 44.3394 25.2084C44.3536 25.4792 44.3532 25.7449 44.3238 26.0147C44.2393 26.7899 43.9369 27.0744 43.1931 27.056C42.5223 27.0394 42.1209 26.6333 42.1199 25.9175C42.115 22.4765 42.078 19.0348 42.1346 15.5947C42.1873 12.3981 44.9048 9.79609 48.0995 9.77232C48.3862 9.77019 48.673 9.77264 49.0073 9.77396ZM50.7514 12.7945C50.2969 12.4668 49.8172 12.2125 49.256 12.0916C47.6636 11.7488 45.7444 12.3353 44.8581 14.0074C44.4614 14.7559 44.2444 15.5325 44.3027 16.3836C44.417 18.0494 45.2112 19.2865 46.747 19.9208C48.1925 20.5177 49.6507 20.4049 50.8975 19.3908C52.9369 17.732 52.8712 14.552 50.7514 12.7945Z" fill="#395ED6"/>
<path d="M11.0665 12.6515C12.2051 10.7535 13.8958 9.88404 16.0289 9.77085C19.1047 9.60763 21.5086 11.6503 22.1683 14.4995C22.2439 14.8261 22.2927 15.1619 22.3196 15.4962C22.3828 16.2829 21.9362 16.755 21.1464 16.8336C19.6786 16.9798 18.2138 16.7958 16.7471 16.8265C15.4654 16.8533 14.1825 16.8396 12.9004 16.8246C12.5065 16.82 12.3938 16.9369 12.5013 17.3328C12.9435 18.9621 13.938 20.0584 15.6176 20.3432C17.1623 20.6051 18.5417 20.2246 19.4709 18.8302C19.7919 18.3485 20.2009 18.1069 20.7893 18.175C21.4294 18.249 21.7786 18.7818 21.5235 19.3717C20.8829 20.8531 19.6894 21.7246 18.209 22.2079C15.4422 23.1113 12.3781 21.9112 10.9178 19.3955C10.5482 18.7589 10.3246 18.0589 10.2614 17.3389C10.1197 15.7269 10.1748 14.1316 11.0665 12.6515ZM18.1006 12.4353C15.4983 10.9761 12.6154 13.0915 12.6346 14.8898C13.2118 14.9593 19.5776 14.9111 19.9176 14.8222C19.6772 13.7758 19.04 13.0386 18.1006 12.4353Z" fill="#395ED6"/>
<path d="M55.5585 5.0551C55.928 4.45056 56.3585 4.23033 56.8614 4.35851C57.435 4.5047 57.75 4.93751 57.7544 5.66425C57.7646 7.35102 57.756 9.03792 57.7551 10.7248C57.755 10.9597 57.7551 11.1946 57.7551 11.4095C57.8603 11.4848 57.9066 11.4245 57.9485 11.3784C59.5208 9.64603 61.4532 9.39413 63.5384 10.1487C65.3041 10.7876 66.497 12.0477 66.9994 13.8977C67.0388 14.0427 67.0777 14.194 67.078 14.3425C67.0836 16.6703 67.0846 18.9982 67.082 21.326C67.0815 21.8356 66.8526 22.2051 66.3528 22.3594C65.8273 22.5217 65.3291 22.348 65.0446 21.9448C64.8977 21.7366 64.8874 21.5063 64.8874 21.2688C64.8872 19.3965 64.8914 17.5241 64.8843 15.6518C64.881 14.7754 64.694 13.9629 64.1416 13.2375C62.9142 11.6256 59.4571 11.1621 58.0623 14.0111C57.7903 14.5667 57.6744 15.1554 57.6751 15.771C57.6773 17.5928 57.6824 19.4146 57.6769 21.2364C57.6745 22.0283 57.2653 22.4172 56.489 22.3967C55.8896 22.3809 55.5484 22.0727 55.4845 21.4822C55.4718 21.3653 55.4775 21.2463 55.4775 21.1283C55.4779 16.0002 55.4783 10.8722 55.4802 5.74412C55.4803 5.52603 55.4576 5.30444 55.5585 5.0551Z" fill="#395ED6"/>
<path d="M37.9914 21.4585C36.005 23.0276 32.5349 22.7435 30.8889 20.8823C29.5278 19.3431 29.322 16.3498 32.4798 15.2565C33.6464 14.8526 34.89 14.8068 36.1047 14.634C36.7535 14.5417 37.3994 14.4276 38.0498 14.3489C38.4517 14.3002 38.4821 14.0991 38.3305 13.7968C37.8096 12.7581 36.9763 12.1206 35.8236 11.9746C34.5949 11.8189 33.5142 12.0955 32.7568 13.1886C32.5887 13.4312 32.3864 13.6804 32.0728 13.766C31.6767 13.8742 31.3058 13.8497 30.9975 13.5317C30.6552 13.1788 30.5926 12.759 30.7337 12.3133C30.9992 11.4741 31.6114 10.9058 32.3482 10.5084C34.9263 9.11796 38.5328 9.57687 40.2027 12.4428C40.564 13.0629 40.7697 13.7322 40.7677 14.4616C40.7618 16.6706 40.7662 18.8796 40.7636 21.0886C40.7625 21.9515 40.3946 22.4311 39.7024 22.4866C39.0571 22.5384 38.6396 22.1329 38.4694 21.2903C38.4629 21.2582 38.4457 21.2283 38.4301 21.189C38.2346 21.1728 38.1566 21.3569 37.9914 21.4585ZM32.6532 17.2687C31.9055 18.2268 32.0525 19.1793 33.054 19.8655C34.106 20.5863 36.1059 20.5297 37.2344 19.7556C38.4242 18.9396 38.7065 17.3653 38.5346 16.1875C38.4847 15.8454 38.2178 15.905 37.9789 15.9501C36.9538 16.1438 35.9244 16.3179 34.9049 16.5379C34.155 16.6997 33.3539 16.7171 32.6532 17.2687ZM31.1881 13.1493C31.2834 13.2716 31.3977 13.373 31.5496 13.4122C31.9324 13.511 32.198 13.3241 32.4178 13.0394C32.5089 12.9213 32.652 12.7916 32.5351 12.6394C32.3206 12.36 32.0192 12.4637 31.7409 12.5153C31.6091 12.5397 31.4797 12.5814 31.3521 12.6241C31.1154 12.7034 31.028 12.8529 31.1881 13.1493Z" fill="#395ED6"/>
<path d="M7.92521 22.3863C5.76602 22.3876 3.65716 22.3854 1.54833 22.3928C0.967506 22.3948 0.417012 22.3403 0.126107 21.7423C-0.181948 21.109 0.125072 20.5996 0.503137 20.1208C2.45746 17.6456 4.41501 15.173 6.37097 12.6992C6.5045 12.5303 6.63421 12.3584 6.769 12.1836C6.55269 12.0169 6.34277 12.0764 6.14923 12.0752C4.61403 12.066 3.07872 12.0727 1.54356 12.0598C0.705665 12.0527 0.267427 11.6465 0.295765 10.9429C0.321866 10.2948 0.712925 9.88933 1.40538 9.8858C3.88531 9.87314 6.36547 9.86973 8.84529 9.89156C9.80197 9.89998 10.3004 10.8117 9.84455 11.662C9.61213 12.0955 9.25772 12.4417 8.95465 12.8249C7.07167 15.2057 5.19619 17.5925 3.32009 19.9788C3.29199 20.0145 3.28772 20.069 3.27031 20.1208C3.43586 20.2659 3.62983 20.2007 3.80501 20.2016C5.4077 20.2101 7.01045 20.2072 8.61315 20.2148C9.02135 20.2167 9.43131 20.249 9.72719 20.5871C10.2925 21.2331 9.97902 22.1976 9.13586 22.3454C8.75829 22.4116 8.36287 22.3759 7.92521 22.3863Z" fill="#395ED6"/>
<path d="M73.9672 14.2896C72.9293 16.4242 73.9435 19.4839 76.6515 20.1527C78.3594 20.5744 80.2615 19.911 81.0203 18.521C81.3307 17.9524 81.9284 17.8473 82.4623 18.1442C82.9567 18.4191 83.14 18.963 82.8862 19.5475C82.4263 20.6066 81.5676 21.2951 80.5817 21.8033C77.6897 23.2941 74.0502 22.3667 72.3268 19.6269C69.7304 15.4992 72.1453 10.6698 76.3935 9.89057C78.6629 9.47428 80.7154 9.95748 82.3374 11.7337C82.5799 11.9993 82.769 12.295 82.8986 12.6275C83.1216 13.1994 82.9155 13.8043 82.4163 14.0674C81.9096 14.3345 81.3651 14.1948 81.0004 13.6871C80.7047 13.2752 80.4111 12.8672 79.9885 12.5684C77.916 11.1025 75.1682 11.8717 73.9672 14.2896Z" fill="#395ED6"/>
<path d="M23.2806 19.1199C23.2821 17.669 23.2747 16.2687 23.287 14.8686C23.3125 11.9621 25.7387 9.65723 28.6437 9.78048C29.2008 9.80412 29.7392 9.93038 29.9776 10.5175C30.2812 11.265 29.7812 11.9913 28.9484 12.0493C28.5633 12.0761 28.1744 12.0137 27.7927 12.1289C26.5441 12.5056 25.6625 13.6515 25.5639 14.968C25.4063 17.0724 25.5486 19.179 25.4859 21.2836C25.4641 22.0153 25.0898 22.4412 24.4428 22.4495C23.7913 22.4577 23.3091 21.9892 23.2913 21.2961C23.2731 20.5879 23.283 19.8791 23.2806 19.1199Z" fill="#395ED6"/>
<path d="M68.1753 12.7417C68.1805 12.0844 68.1522 11.477 68.2297 10.8719C68.3111 10.2374 68.7673 9.85079 69.4125 9.88146C70.0122 9.90996 70.4298 10.3408 70.4307 10.9763C70.4356 14.4178 70.4348 17.8594 70.4289 21.3009C70.4278 21.9522 70.0004 22.401 69.3833 22.4406C68.7202 22.4832 68.3057 22.109 68.228 21.3899C68.0843 20.0603 68.2005 18.7272 68.1816 17.3958C68.1598 15.8615 68.1753 14.3268 68.1753 12.7417Z" fill="#395ED6"/>
<path d="M70.5547 5.48419C69.7276 5.3775 69.2283 5.75274 68.8997 6.42917C68.7451 6.74751 68.5771 7.05964 68.4076 7.37047C67.8067 8.47278 66.8432 9.05754 65.6399 9.29142C65.4632 9.32576 65.2732 9.37172 65.1276 9.20745C65.1039 9.03538 65.242 9.01711 65.3394 8.96378C66.455 8.35339 67.1822 7.47581 67.3444 6.1698C67.4928 4.97603 67.9778 4.00746 69.2231 3.5954C69.6213 3.46366 70.0254 3.47307 70.4254 3.50154C71.336 3.56631 72.1901 3.84461 73.0163 4.21374C72.9433 4.47652 72.7432 4.46022 72.5987 4.52179C72.2338 4.67725 71.8707 4.85775 71.7303 5.24775C71.5598 5.72142 71.2875 5.75971 70.8908 5.55342C70.8047 5.50864 70.6958 5.50762 70.5547 5.48419Z" fill="#395ED6"/>
<path d="M71.9872 5.5675C72.14 5.21926 72.3739 4.99706 72.6964 4.91121C73.898 4.59138 75.0193 3.99635 76.2698 3.85015C77.7097 3.68179 79.1352 3.63166 80.371 4.59414C80.5369 4.72335 80.7501 4.82394 80.7836 5.12389C80.2789 5.03159 79.7946 4.93971 79.3091 4.85502C78.5899 4.72959 77.873 4.74101 77.1527 4.86812C76.4512 4.99193 75.858 5.2683 75.3644 5.81229C74.6746 6.57244 73.824 7.00946 72.7544 6.79299C72.053 6.65103 71.8054 6.26055 71.9872 5.5675Z" fill="#151922"/>
<path d="M72.9958 8.78159C73.1142 9.17681 73.0881 9.5301 72.9269 9.85621C72.6363 10.444 72.4836 11.0535 72.5391 11.7112C72.5458 11.7909 72.5448 11.8823 72.4142 11.9488C72.107 11.8745 71.9902 11.5816 71.8476 11.3291C71.5451 10.7933 71.4411 10.1888 71.3031 9.60086C71.147 8.93636 70.81 8.43128 70.2005 8.10904C70.0542 8.0317 69.9114 7.92816 69.8011 7.80586C69.3095 7.26058 69.2522 6.49673 69.6649 6.17379C70.2057 5.75055 71.3695 5.91514 71.7623 6.53637C72.2104 7.24509 72.5782 8.00463 72.9958 8.78159Z" fill="#151922"/>
<path d="M71.9204 0.490406C72.4879 1.3311 72.4748 1.91847 71.9001 2.52885C71.2994 3.16698 70.4661 3.22341 69.822 2.66957C69.2476 2.17575 69.1655 1.23088 69.6426 0.605732C70.1535 -0.063627 71.0138 -0.194396 71.7068 0.294371C71.7751 0.34255 71.833 0.405576 71.9204 0.490406Z" fill="#395ED6"/>
<path d="M32.4877 12.4413C32.3136 12.4776 32.2603 12.4762 32.2371 12.6386C32.2296 12.6911 32.2011 12.7389 32.1882 12.7906C32.1761 12.8387 32.1566 12.8764 32.205 12.8103C32.2471 12.7527 32.3248 12.7054 32.3832 12.6649C32.4287 12.6334 32.4805 12.6009 32.4877 12.6853C32.4958 12.7789 32.5087 12.8169 32.4644 12.9016C32.3784 13.0657 32.2803 13.1908 32.099 13.2567C31.9776 13.3009 31.8149 13.3162 31.6854 13.3093C31.6543 13.3077 31.6175 13.2762 31.5934 13.2597C31.5551 13.2334 31.507 13.2268 31.4684 13.1968C31.3937 13.1387 31.3427 13.1107 31.3296 13.0061C31.3251 12.97 31.3103 12.9168 31.2974 12.8834C31.2796 12.837 31.2909 12.7724 31.2909 12.7233C31.2909 12.5768 31.4058 12.5589 31.5101 12.4983C31.581 12.457 31.7644 12.4151 31.7644 12.5458C31.7644 12.6206 31.7775 12.6992 31.7775 12.7767C31.7775 12.8685 31.7604 12.9148 31.8696 12.9148C31.9183 12.9148 31.9566 12.8885 32.0018 12.8885C32.03 12.8885 32.1215 12.8843 32.1326 12.8622" stroke="#395ED6" stroke-width="0.5" stroke-linecap="round"/>
</svg>
