<svg width="37" height="27" viewBox="0 0 37 27" fill="none" xmlns="http://www.w3.org/2000/svg">
<g clip-path="url(#clip0_2_65)">
<path d="M35.5 24H18.5C17.6716 24 17 24.6716 17 25.5C17 26.3284 17.6716 27 18.5 27H35.5C36.3284 27 37 26.3284 37 25.5C37 24.6716 36.3284 24 35.5 24Z" fill="#395ED6"/>
<path d="M35.5 12H8.5C7.67157 12 7 12.6716 7 13.5C7 14.3284 7.67157 15 8.5 15H35.5C36.3284 15 37 14.3284 37 13.5C37 12.6716 36.3284 12 35.5 12Z" fill="#395ED6"/>
<path d="M35.5 0H1.5C0.671573 0 0 0.671573 0 1.5C0 2.32843 0.671573 3 1.5 3H35.5C36.3284 3 37 2.32843 37 1.5C37 0.671573 36.3284 0 35.5 0Z" fill="#395ED6"/>
</g>
<defs>
<clipPath id="clip0_2_65">
<rect width="37" height="27" fill="white"/>
</clipPath>
</defs>
</svg>
